<svg width="188" height="42" viewBox="0 0 188 42" fill="none" xmlns="http://www.w3.org/2000/svg">
<path d="M0 42V0H17.2051C20.3234 0 23.0147 0.615235 25.2788 1.8457C27.5566 3.0625 29.3123 4.76465 30.5461 6.95215C31.7799 9.12598 32.3968 11.6553 32.3968 14.54C32.3968 17.4385 31.7663 19.9746 30.5054 22.1484C29.2581 24.3086 27.4752 25.9834 25.1568 27.1729C22.8384 28.3623 20.0861 28.957 16.9 28.957H6.28412V20.959H15.029C16.5475 20.959 17.8152 20.6924 18.832 20.1592C19.8624 19.626 20.642 18.8809 21.1708 17.9238C21.6995 16.9531 21.9639 15.8252 21.9639 14.54C21.9639 13.2412 21.6995 12.1201 21.1708 11.1768C20.642 10.2197 19.8624 9.48145 18.832 8.96192C17.8016 8.44238 16.534 8.18262 15.029 8.18262H10.0668V42H0Z" fill="#FFF5F1"/>
<path d="M37.359 42V0H54.5641C57.6824 0 60.3737 0.567383 62.6379 1.70215C64.9156 2.82324 66.6714 4.43652 67.9051 6.54199C69.1389 8.63379 69.7558 11.1152 69.7558 13.9863C69.7558 16.8984 69.1253 19.373 67.8645 21.4102C66.6036 23.4336 64.8139 24.9785 62.4955 26.0449C60.1771 27.0977 57.4316 27.624 54.259 27.624H43.3787V19.626H52.388C53.9065 19.626 55.1742 19.4277 56.191 19.0312C57.2214 18.6211 58.001 18.0059 58.5298 17.1855C59.0586 16.3516 59.3229 15.2852 59.3229 13.9863C59.3229 12.6875 59.0586 11.6143 58.5298 10.7666C58.001 9.90527 57.2214 9.2627 56.191 8.83887C55.1606 8.40137 53.893 8.18262 52.388 8.18262H47.4258V42H37.359ZM60.8075 22.8047L71.1794 42H60.1974L50.0289 22.8047H60.8075Z" fill="#FFF5F1"/>
<path d="M75.2773 42V0H104.318V8.24414H85.3441V16.8574H102.834V25.1221H85.3441V33.7559H104.318V42H75.2773Z" fill="#FFF5F1"/>
<path d="M110.481 42V36.2168L130.716 8.24414H110.501V0H143.447V5.7832L123.212 33.7559H143.426V42H110.481Z" fill="#FFF5F1"/>
<path d="M147.529 0H158.776L167.582 17.5752H167.948L176.754 0H188L172.768 27.9727V42H162.762V27.9727L147.529 0Z" fill="#FFF5F1"/>
</svg>
