<svg width="286" height="311" viewBox="0 0 286 311" fill="rgb(255,224,61)" xmlns="http://www.w3.org/2000/svg">
<path d="M2.5 116.364V0H46.1364C55.0758 0 62.5758 1.66667 68.6364 5C74.7349 8.33333 79.3371 12.9167 82.4432 18.75C85.5871 24.5455 87.1591 31.1364 87.1591 38.5227C87.1591 45.9848 85.5871 52.6136 82.4432 58.4091C79.2992 64.2045 74.6591 68.7689 68.5227 72.1023C62.3864 75.3977 54.8295 77.0455 45.8523 77.0455H16.9318V59.7159H43.0114C48.2386 59.7159 52.5189 58.8068 55.8523 56.9886C59.1856 55.1705 61.6477 52.6705 63.2386 49.4886C64.8674 46.3068 65.6818 42.6515 65.6818 38.5227C65.6818 34.3939 64.8674 30.7576 63.2386 27.6136C61.6477 24.4697 59.1667 22.0265 55.7955 20.2841C52.4621 18.5038 48.1629 17.6136 42.8977 17.6136H23.5795V116.364H2.5Z" fill="rgb(255,224,61)"/>
<path d="M105.469 116.364V0H149.105C158.045 0 165.545 1.55303 171.605 4.65909C177.704 7.76515 182.306 12.1212 185.412 17.7273C188.556 23.2955 190.128 29.7917 190.128 37.2159C190.128 44.678 188.537 51.1553 185.355 56.6477C182.211 62.1023 177.571 66.3258 171.435 69.3182C165.298 72.2727 157.76 73.75 148.821 73.75H117.741V56.25H145.98C151.207 56.25 155.488 55.5303 158.821 54.0909C162.154 52.6136 164.616 50.4735 166.207 47.6705C167.836 44.8295 168.651 41.3447 168.651 37.2159C168.651 33.0871 167.836 29.5644 166.207 26.6477C164.579 23.6932 162.098 21.4583 158.764 19.9432C155.431 18.3902 151.132 17.6136 145.866 17.6136H126.548V116.364H105.469ZM165.582 63.6364L194.389 116.364H170.866L142.571 63.6364H165.582Z" fill="rgb(255,224,61)"/>
<path d="M209.531 116.364V0H285.213V17.6705H230.611V49.2614H281.293V66.9318H230.611V98.6932H285.668V116.364H209.531Z" fill="rgb(255,224,61)"/>
<path d="M0.340909 310.364V297.239L60 211.67H0V194H86.1364V207.125L26.5341 292.693H86.4773V310.364H0.340909Z" fill="rgb(255,224,61)"/>
<path d="M98.9205 194H122.727L151.193 245.477H152.33L180.795 194H204.602L162.273 266.955V310.364H141.25V266.955L98.9205 194Z" fill="rgb(255,224,61)"/>
</svg>
